name GIL04_xslow1Moments.mot
datacolumns 7
datarows 47
range 0.35000002 0.73333335
endheader

                time	          RHipMoment	          LHipMoment	         RKneeMoment	         LKneeMoment	        RAnkleMoment	        LAnkleMoment	
          0.35000002	        428.90206909	        -42.05163956	        -84.55300140	        -10.24515724	        174.21609497	        -15.11527252	
          0.35833338	        424.06542969	        -49.71066284	        -85.91041565	          0.51564467	        191.11865234	        -16.78305054	
          0.36666670	        412.88946533	        -62.28058624	        -86.83212280	         11.92687988	        211.38508606	        -18.35316467	
          0.37500003	        394.11782837	        -74.27111816	        -83.20378113	         22.55577660	        232.05104065	        -19.62564850	
          0.38333336	        372.67324829	        -88.41264343	        -77.43248749	         31.95483780	        250.64328003	        -20.38986397	
          0.39166671	        362.66976929	        -99.71405792	        -76.89856720	         39.46970749	        270.73651123	        -20.47619057	
          0.40000004	        350.27114868	       -110.53663635	        -75.56631470	         45.23888016	        290.06405640	        -19.79887962	
          0.40833336	        335.18640137	       -117.72992706	        -75.10553741	         49.21751022	        310.89126587	        -18.39177322	
          0.41666669	        312.17587280	       -124.29218292	        -73.40363312	         51.73330307	        331.02658081	        -16.41541672	
          0.42500004	        291.93395996	       -128.59216309	        -75.56764221	         52.77339172	        351.76168823	        -14.13516712	
          0.43333337	        274.68310547	       -131.10154724	        -81.43511200	         52.19206238	        372.67687988	        -11.86273098	
          0.44166669	        263.54244995	       -130.16862488	        -91.80699158	         49.85023880	        394.58026123	         -9.88199997	
          0.45000005	        254.04078674	       -126.39926147	       -103.60112000	         45.73808289	        417.04190063	         -8.38504696	
          0.45833337	        248.34594727	       -118.49864960	       -116.42092133	         40.17205429	        439.09231567	         -7.43827295	
          0.46666670	        241.68673706	       -107.29447937	       -128.26696777	         33.67662048	        460.73419189	         -6.99413109	
          0.47500002	        234.33049011	        -93.38562012	       -139.12501526	         26.95524597	        482.65258789	         -6.93312883	
          0.48333335	        223.05575562	        -78.66588593	       -147.26765442	         20.62042046	        503.84616089	         -7.11584759	
          0.49166670	        213.39544678	        -64.35350800	       -155.97111511	         15.05532551	        525.04907227	         -7.42231655	
          0.50000000	        203.47644043	        -51.84687424	       -164.44656372	         10.30495548	        545.79321289	         -7.77451944	
          0.50833338	        192.48933411	        -41.36565399	       -172.16958618	          6.11222649	        565.27429199	         -8.13700962	
          0.51666671	        183.52197266	        -32.99834824	       -180.30850220	          2.06543827	        583.72564697	         -8.50529575	
          0.52500004	        175.11628723	        -26.06875610	       -187.43476868	         -2.17946053	        601.29907227	         -8.88178349	
          0.53333336	        165.78474426	        -19.92666054	       -192.88999939	         -6.80049038	        618.12200928	         -9.26317120	
          0.54166669	        161.42991638	        -14.17221355	       -201.12522888	        -11.75469303	        634.62316895	         -9.63586807	
          0.55000001	        155.58517456	         -8.77066612	       -208.50645447	        -16.80091667	        646.69201660	         -9.97990608	
          0.55833340	        148.26840210	         -4.07822704	       -214.54702759	        -21.59650421	        652.82263184	        -10.27316952	
          0.56666672	        134.71719360	         -0.61883700	       -215.49528503	        -25.83701324	        655.00781250	        -10.50067711	
          0.57500005	        121.35490417	          1.23154950	       -214.60630798	        -29.33407784	        657.29235840	        -10.66320705	
          0.58333337	        106.89032745	          1.37752378	       -209.72035217	        -32.02847290	        658.26550293	        -10.77750587	
          0.59166670	        100.59143829	         -0.04330276	       -206.14759827	        -33.93932343	        660.82226563	        -10.86574268	
          0.60000002	         99.67951965	         -2.69095230	       -204.36660767	        -35.15127182	        660.83343506	        -10.94845104	
          0.60833335	        104.00276947	         -6.20268536	       -204.03939819	        -35.73628616	        660.11981201	        -11.03779984	
          0.61666667	        108.59403229	        -10.14611816	       -203.42376709	        -35.75035095	        663.47723389	        -11.13243675	
          0.62500000	        110.48291779	        -14.17129707	       -203.31198120	        -35.22640228	        672.00762939	        -11.21635818	
          0.63333333	        100.54029083	        -17.89269638	       -199.66743469	        -34.27987671	        686.29125977	        -11.26696968	
          0.64166671	         78.75120544	        -20.77210236	       -192.18852234	        -33.15928268	        705.71948242	        -11.26700020	
          0.65000004	         46.94087982	        -22.21670914	       -180.53883362	        -32.20972061	        726.36682129	        -11.21183300	
          0.65833336	         20.38182259	        -21.73410416	       -171.54986572	        -31.80273819	        746.41308594	        -11.10802555	
          0.66666669	         -1.35280049	        -18.95516586	       -163.64642334	        -32.30673218	        763.12231445	        -10.97254086	
          0.67500007	        -15.73424244	        -13.96043777	       -157.57656860	        -33.94234085	        775.73468018	        -10.82536793	
          0.68333340	        -25.29486084	         -7.28216457	       -151.98452759	        -36.69712448	        783.66033936	        -10.68019295	
          0.69166672	        -26.30913353	          0.18357256	       -149.12332153	        -40.34734344	        789.42456055	        -10.53822803	
          0.70000005	        -26.94635963	          7.55679941	       -145.04739380	        -44.56904602	        794.64038086	        -10.38617134	
          0.70833337	        -25.21222305	         14.20109081	       -140.96440125	        -49.06782150	        799.81982422	        -10.19748783	
          0.71666670	        -25.36268997	         19.75595474	       -134.14738464	        -53.61505508	        804.36535645	         -9.93723965	
          0.72500002	        -22.59233665	         24.23508644	       -128.18879700	        -58.11527252	        811.46728516	         -9.57140827	
          0.73333335	        -26.27959442	         28.07634544	       -118.41787720	        -62.62461090	        821.02075195	         -9.08032036	
